<mxfile host="65bd71144e">
    <diagram id="y7RhIh0XU01d0T-S3SPs" name="Page-1">
        <mxGraphModel dx="730" dy="515" grid="0" gridSize="12" guides="1" tooltips="1" connect="1" arrows="1" fold="1" page="1" pageScale="1" pageWidth="1100" pageHeight="1700" math="0" shadow="0">
            <root>
                <mxCell id="0"/>
                <mxCell id="1" parent="0"/>
                <mxCell id="2" value="User" style="rounded=0;whiteSpace=wrap;html=1;" parent="1" vertex="1">
                    <mxGeometry x="98" y="124" width="135" height="48" as="geometry"/>
                </mxCell>
                <mxCell id="3" value="" style="endArrow=classic;html=1;exitX=1;exitY=0.25;exitDx=0;exitDy=0;" parent="1" source="2" edge="1">
                    <mxGeometry width="50" height="50" relative="1" as="geometry">
                        <mxPoint x="520" y="342" as="sourcePoint"/>
                        <mxPoint x="331" y="136" as="targetPoint"/>
                    </mxGeometry>
                </mxCell>
                <mxCell id="4" value="Classify&lt;br&gt;Image" style="ellipse;whiteSpace=wrap;html=1;aspect=fixed;" parent="1" vertex="1">
                    <mxGeometry x="336" y="108" width="80" height="80" as="geometry"/>
                </mxCell>
                <mxCell id="5" value="" style="endArrow=classic;html=1;" parent="1" edge="1">
                    <mxGeometry width="50" height="50" relative="1" as="geometry">
                        <mxPoint x="329" y="166" as="sourcePoint"/>
                        <mxPoint x="238" y="166" as="targetPoint"/>
                    </mxGeometry>
                </mxCell>
                <mxCell id="6" value="capture image" style="text;html=1;align=center;verticalAlign=middle;resizable=0;points=[];autosize=1;strokeColor=none;fillColor=none;" parent="1" vertex="1">
                    <mxGeometry x="238" y="93" width="94" height="26" as="geometry"/>
                </mxCell>
                <mxCell id="7" value="Prediction" style="text;html=1;align=center;verticalAlign=middle;resizable=0;points=[];autosize=1;strokeColor=none;fillColor=none;" parent="1" vertex="1">
                    <mxGeometry x="250" y="175" width="71" height="26" as="geometry"/>
                </mxCell>
                <mxCell id="8" value="" style="endArrow=classic;html=1;" parent="1" edge="1">
                    <mxGeometry width="50" height="50" relative="1" as="geometry">
                        <mxPoint x="427" y="149" as="sourcePoint"/>
                        <mxPoint x="499" y="149" as="targetPoint"/>
                    </mxGeometry>
                </mxCell>
                <mxCell id="9" value="Save Prediction" style="ellipse;whiteSpace=wrap;html=1;aspect=fixed;" parent="1" vertex="1">
                    <mxGeometry x="507" y="108" width="80" height="80" as="geometry"/>
                </mxCell>
                <mxCell id="10" value="" style="endArrow=classic;html=1;" parent="1" edge="1">
                    <mxGeometry width="50" height="50" relative="1" as="geometry">
                        <mxPoint x="590" y="147.41" as="sourcePoint"/>
                        <mxPoint x="644" y="147.7892857142856" as="targetPoint"/>
                    </mxGeometry>
                </mxCell>
                <mxCell id="13" value="" style="edgeStyle=none;html=1;" parent="1" target="12" edge="1">
                    <mxGeometry relative="1" as="geometry">
                        <mxPoint x="674" y="188" as="sourcePoint"/>
                    </mxGeometry>
                </mxCell>
                <mxCell id="15" value="" style="edgeStyle=none;html=1;" parent="1" source="12" target="14" edge="1">
                    <mxGeometry relative="1" as="geometry"/>
                </mxCell>
                <mxCell id="12" value="Read&amp;nbsp;&lt;br&gt;Data" style="ellipse;whiteSpace=wrap;html=1;" parent="1" vertex="1">
                    <mxGeometry x="634" y="268" width="80" height="80" as="geometry"/>
                </mxCell>
                <mxCell id="14" value="Dept Member" style="whiteSpace=wrap;html=1;" parent="1" vertex="1">
                    <mxGeometry x="774" y="285" width="120" height="52" as="geometry"/>
                </mxCell>
                <mxCell id="16" value="Farmer" style="rounded=0;whiteSpace=wrap;html=1;" parent="1" vertex="1">
                    <mxGeometry x="87" y="483" width="120" height="43" as="geometry"/>
                </mxCell>
                <mxCell id="17" value="" style="endArrow=classic;html=1;exitX=1;exitY=0.5;exitDx=0;exitDy=0;" parent="1" source="16" edge="1">
                    <mxGeometry width="50" height="50" relative="1" as="geometry">
                        <mxPoint x="520" y="627" as="sourcePoint"/>
                        <mxPoint x="275" y="505" as="targetPoint"/>
                    </mxGeometry>
                </mxCell>
                <mxCell id="20" value="" style="edgeStyle=none;html=1;" parent="1" source="18" target="19" edge="1">
                    <mxGeometry relative="1" as="geometry"/>
                </mxCell>
                <mxCell id="18" value="Image&lt;br&gt;Processing" style="ellipse;whiteSpace=wrap;html=1;aspect=fixed;" parent="1" vertex="1">
                    <mxGeometry x="280" y="460.5" width="79.75" height="79.75" as="geometry"/>
                </mxCell>
                <mxCell id="22" value="" style="edgeStyle=none;html=1;" parent="1" source="19" target="21" edge="1">
                    <mxGeometry relative="1" as="geometry"/>
                </mxCell>
                <mxCell id="19" value="Classify&lt;br&gt;Image" style="ellipse;whiteSpace=wrap;html=1;aspect=fixed;" parent="1" vertex="1">
                    <mxGeometry x="432.5" y="459" width="82.75" height="82.75" as="geometry"/>
                </mxCell>
                <mxCell id="28" value="" style="edgeStyle=none;html=1;" parent="1" source="21" target="27" edge="1">
                    <mxGeometry relative="1" as="geometry"/>
                </mxCell>
                <mxCell id="21" value="Save Prediction Along with Device Coordinates" style="ellipse;whiteSpace=wrap;html=1;" parent="1" vertex="1">
                    <mxGeometry x="422.75" y="610" width="102.25" height="99" as="geometry"/>
                </mxCell>
                <mxCell id="23" value="" style="endArrow=classic;html=1;exitX=0;exitY=1;exitDx=0;exitDy=0;" parent="1" source="19" edge="1">
                    <mxGeometry width="50" height="50" relative="1" as="geometry">
                        <mxPoint x="442" y="562" as="sourcePoint"/>
                        <mxPoint x="144" y="529" as="targetPoint"/>
                        <Array as="points">
                            <mxPoint x="447" y="562"/>
                            <mxPoint x="144" y="562"/>
                        </Array>
                    </mxGeometry>
                </mxCell>
                <mxCell id="24" value="Display Predicted to Farmer" style="text;html=1;align=center;verticalAlign=middle;resizable=0;points=[];autosize=1;strokeColor=none;fillColor=none;" parent="1" vertex="1">
                    <mxGeometry x="192" y="560" width="167" height="26" as="geometry"/>
                </mxCell>
                <mxCell id="25" value="Capture &lt;br&gt;image" style="text;html=1;align=center;verticalAlign=middle;resizable=0;points=[];autosize=1;strokeColor=none;fillColor=none;" parent="1" vertex="1">
                    <mxGeometry x="206" y="452" width="61" height="41" as="geometry"/>
                </mxCell>
                <mxCell id="26" value="Supplying to&amp;nbsp;&lt;br&gt;Model" style="text;html=1;align=center;verticalAlign=middle;resizable=0;points=[];autosize=1;strokeColor=none;fillColor=none;" parent="1" vertex="1">
                    <mxGeometry x="352" y="452" width="87" height="41" as="geometry"/>
                </mxCell>
                <mxCell id="31" value="" style="edgeStyle=none;html=1;" parent="1" source="27" target="30" edge="1">
                    <mxGeometry relative="1" as="geometry"/>
                </mxCell>
                <mxCell id="27" value="Firebase" style="shape=dataStorage;whiteSpace=wrap;html=1;fixedSize=1;" parent="1" vertex="1">
                    <mxGeometry x="576" y="619.5" width="100" height="80" as="geometry"/>
                </mxCell>
                <mxCell id="29" value="Firebase" style="shape=dataStorage;whiteSpace=wrap;html=1;fixedSize=1;" parent="1" vertex="1">
                    <mxGeometry x="646" y="104" width="100" height="80" as="geometry"/>
                </mxCell>
                <mxCell id="33" value="" style="edgeStyle=none;html=1;" parent="1" source="30" target="32" edge="1">
                    <mxGeometry relative="1" as="geometry"/>
                </mxCell>
                <mxCell id="35" value="" style="edgeStyle=none;html=1;" parent="1" source="30" target="34" edge="1">
                    <mxGeometry relative="1" as="geometry"/>
                </mxCell>
                <mxCell id="30" value="Read&lt;br&gt;Data" style="ellipse;whiteSpace=wrap;html=1;" parent="1" vertex="1">
                    <mxGeometry x="586" y="779.5" width="80" height="80" as="geometry"/>
                </mxCell>
                <mxCell id="32" value="Visualize &lt;br&gt;Data" style="ellipse;whiteSpace=wrap;html=1;" parent="1" vertex="1">
                    <mxGeometry x="426" y="779.5" width="80" height="80" as="geometry"/>
                </mxCell>
                <mxCell id="34" value="In-Depth&lt;br&gt;Analysis based on month and arae" style="ellipse;whiteSpace=wrap;html=1;" parent="1" vertex="1">
                    <mxGeometry x="586" y="923" width="98" height="96.5" as="geometry"/>
                </mxCell>
                <mxCell id="36" value="Dept Member" style="rounded=0;whiteSpace=wrap;html=1;" parent="1" vertex="1">
                    <mxGeometry x="91" y="795" width="120" height="43" as="geometry"/>
                </mxCell>
                <mxCell id="37" value="" style="edgeStyle=none;html=1;" parent="1" edge="1">
                    <mxGeometry relative="1" as="geometry">
                        <mxPoint x="422.37" y="806" as="sourcePoint"/>
                        <mxPoint x="217.37" y="806" as="targetPoint"/>
                    </mxGeometry>
                </mxCell>
                <mxCell id="38" value="" style="edgeStyle=none;html=1;" parent="1" edge="1">
                    <mxGeometry relative="1" as="geometry">
                        <mxPoint x="582" y="983" as="sourcePoint"/>
                        <mxPoint x="139" y="849" as="targetPoint"/>
                        <Array as="points">
                            <mxPoint x="139" y="983"/>
                        </Array>
                    </mxGeometry>
                </mxCell>
                <mxCell id="39" value="fetch weather&amp;nbsp;&lt;br&gt;form API" style="ellipse;whiteSpace=wrap;html=1;" parent="1" vertex="1">
                    <mxGeometry x="207" y="625" width="102.25" height="99" as="geometry"/>
                </mxCell>
                <mxCell id="40" value="" style="endArrow=classic;html=1;" parent="1" edge="1">
                    <mxGeometry width="50" height="50" relative="1" as="geometry">
                        <mxPoint x="202" y="668" as="sourcePoint"/>
                        <mxPoint x="114" y="533" as="targetPoint"/>
                        <Array as="points">
                            <mxPoint x="114" y="668"/>
                        </Array>
                    </mxGeometry>
                </mxCell>
                <mxCell id="41" value="" style="endArrow=classic;html=1;" parent="1" edge="1">
                    <mxGeometry width="50" height="50" relative="1" as="geometry">
                        <mxPoint x="92" y="539" as="sourcePoint"/>
                        <mxPoint x="204" y="688" as="targetPoint"/>
                        <Array as="points">
                            <mxPoint x="92" y="688"/>
                        </Array>
                    </mxGeometry>
                </mxCell>
                <mxCell id="42" value="request weather&amp;nbsp;&lt;br&gt;data" style="text;html=1;align=center;verticalAlign=middle;resizable=0;points=[];autosize=1;strokeColor=none;fillColor=none;" parent="1" vertex="1">
                    <mxGeometry x="91" y="687" width="107" height="41" as="geometry"/>
                </mxCell>
                <mxCell id="43" value="response" style="text;html=1;align=center;verticalAlign=middle;resizable=0;points=[];autosize=1;strokeColor=none;fillColor=none;" parent="1" vertex="1">
                    <mxGeometry x="132" y="640" width="67" height="26" as="geometry"/>
                </mxCell>
                <mxCell id="44" value="" style="edgeStyle=none;html=1;" parent="1" edge="1">
                    <mxGeometry relative="1" as="geometry">
                        <mxPoint x="223" y="830" as="sourcePoint"/>
                        <mxPoint x="419" y="830" as="targetPoint"/>
                    </mxGeometry>
                </mxCell>
                <mxCell id="45" value="request data" style="text;html=1;align=center;verticalAlign=middle;resizable=0;points=[];autosize=1;strokeColor=none;fillColor=none;" parent="1" vertex="1">
                    <mxGeometry x="270" y="834" width="85" height="26" as="geometry"/>
                </mxCell>
                <mxCell id="46" value="response in charts and visualisation" style="text;html=1;align=center;verticalAlign=middle;resizable=0;points=[];autosize=1;strokeColor=none;fillColor=none;" parent="1" vertex="1">
                    <mxGeometry x="209" y="774" width="208" height="26" as="geometry"/>
                </mxCell>
                <mxCell id="47" value="" style="endArrow=classic;html=1;" parent="1" edge="1">
                    <mxGeometry width="50" height="50" relative="1" as="geometry">
                        <mxPoint x="169" y="847" as="sourcePoint"/>
                        <mxPoint x="583" y="953" as="targetPoint"/>
                        <Array as="points">
                            <mxPoint x="169" y="953"/>
                        </Array>
                    </mxGeometry>
                </mxCell>
                <mxCell id="48" value="request area and month wise data" style="text;html=1;align=center;verticalAlign=middle;resizable=0;points=[];autosize=1;strokeColor=none;fillColor=none;" parent="1" vertex="1">
                    <mxGeometry x="181" y="914" width="199" height="26" as="geometry"/>
                </mxCell>
                <mxCell id="49" value="response" style="text;html=1;align=center;verticalAlign=middle;resizable=0;points=[];autosize=1;strokeColor=none;fillColor=none;" parent="1" vertex="1">
                    <mxGeometry x="258" y="986" width="67" height="26" as="geometry"/>
                </mxCell>
            </root>
        </mxGraphModel>
    </diagram>
</mxfile>